# xmcd CD database file
# Copyright (C) 1993-1998 Ti Kan
# 
# Track frame offsets:
#     150
#     13543
#     26950
#     39568
#     52975
#     65108
#     78300
#     91950
#     102550
#     116380
#     125925
#     136530
#     146515
#     158575
#     169795
#     180338
#     192008
#     205450
#     220043
#     235125
#     251275
#     267863
#     280573
#     297723
# 
# Disc length: 4156 seconds
# 
# Revision: 1
# Processed by: cddbd v1.4b41PL1 Copyright (c) Steve Scherf et al.
# Submitted via: DiscPlay 4.0.4
# 
DISCID=55103a18
DTITLE=Etta James - Tell Mama Vol 1
DYEAR=1900
DGENRE=
TTITLE0=All I could do was cry
TTITLE1=At last
TTITLE2=Something's got a hold on me
TTITLE3=Fool that I am
TTITLE4=Stop the wedding
TTITLE5=Pushover
TTITLE6=Do I make myself clear
TTITLE7=In the basement, part one
TTITLE8=I prefer you
TTITLE9=Watch dog
TTITLE10=Tell Mama
TTITLE11=Just a little bit
TTITLE12=The same rope
TTITLE13=Security
TTITLE14=Miss Pitiful
TTITLE15=I'd rather go blind
TTITLE16=Loser, weeper, part I
TTITLE17=W.O.M.A.N.
TTITLE18=You can leave your hat on
TTITLE19=God's song (That's why I love mankind)
TTITLE20=Let's burn down the cornfield
TTITLE21=Feeling uneasy
TTITLE22=Lovin' arms
TTITLE23=Gonna have some fun tonight
EXTD=
EXTT0=
EXTT1=
EXTT2=
EXTT3=
EXTT4=
EXTT5=
EXTT6=
EXTT7=
EXTT8=
EXTT9=
EXTT10=
EXTT11=
EXTT12=
EXTT13=
EXTT14=
EXTT15=
EXTT16=
EXTT17=
EXTT18=
EXTT19=
EXTT20=
EXTT21=
EXTT22=
EXTT23=
PLAYORDER=
